<?xml version="1.0" encoding="utf-8"?>
<svg id="master-artboard" viewBox="0 0 1400 980" version="1.1" xmlns="http://www.w3.org/2000/svg" x="0px" y="0px" style="enable-background:new 0 0 1400 980;" width="1400px" height="980px"><defs><linearGradient id="paint0_linear" x1="21.1572" y1="9.84175" x2="38.161" y2="9.56396" gradientUnits="userSpaceOnUse">
<stop stop-color="#FDBA2B"/>
<stop offset="1" stop-color="#FDD730"/>
</linearGradient><radialGradient id="paint1_radial" cx="0" cy="0" r="1" gradientUnits="userSpaceOnUse" gradientTransform="translate(10.3185 30.6938) rotate(-73.0633) scale(25.1189 85.1653)">
<stop stop-color="#FA2946"/>
<stop offset="1" stop-color="#CC1C58"/>
</radialGradient><linearGradient id="gradient-1" x1="21.1572" y1="9.84175" x2="38.161" y2="9.56396" gradientUnits="userSpaceOnUse">
<stop stop-color="#FDBA2B"/>
<stop offset="1" stop-color="#FDD730"/>
</linearGradient><radialGradient id="gradient-2" cx="0" cy="0" r="1" gradientUnits="userSpaceOnUse" gradientTransform="translate(10.3185 30.6938) rotate(-73.0633) scale(25.1189 85.1653)">
<stop stop-color="#FA2946"/>
<stop offset="1" stop-color="#CC1C58"/>
</radialGradient></defs><g transform="matrix(0.1639797881168733, 0, 0, 0.1639797881168733, 3.214346408843994, -49.34999465942383)"><rect id="ee-background" x="0" y="0" width="1400" height="980" style="fill: white; fill-opacity: 0; pointer-events: none;"/></g><g transform="matrix(1.2276557450194032, 0, 0, 1.2276557450194032, 3.2143324321567164, 11.971406334926757)"><path fill-rule="evenodd" clip-rule="evenodd" d="M21.1572 24.1669C21.7159 23.7291 22.2489 23.2571 22.7529 22.7531C24.3944 21.1115 25.6965 19.1628 26.5849 17.018C26.6923 16.7587 26.7934 16.4971 26.8882 16.2335C27.1396 16.1649 27.387 16.0804 27.6288 15.9803C28.3801 15.6691 29.0627 15.2129 29.6377 14.6379C30.2128 14.0629 30.6689 13.3802 30.9801 12.6289C31.2913 11.8776 31.4515 11.0724 31.4515 10.2592C31.4515 9.44594 31.2913 8.64069 30.9801 7.88938C30.6689 7.13807 30.2128 6.45542 29.6377 5.88039L35.512 0.00610352C36.8585 1.35255 37.9265 2.95102 38.6552 4.71024C39.3839 6.46946 39.759 8.35498 39.759 10.2592C39.759 12.1633 39.3839 14.0488 38.6552 15.8081C37.9265 17.5673 36.8585 19.1658 35.512 20.5122C34.1656 21.8587 32.5671 22.9267 30.8079 23.6554C29.0487 24.3841 27.1631 24.7592 25.259 24.7592C23.8678 24.7592 22.4865 24.559 21.1572 24.1669Z" fill="url(#paint0_linear)" transform="matrix(1, 0, 0, 1, 1.6028566255886858, 7.105427357601002e-15)"/><path d="M0.000132214 20.5061C1.34658 21.8526 2.94505 22.9206 4.70427 23.6493C6.46349 24.378 8.34901 24.7531 10.2532 24.7531C12.1573 24.7531 14.0429 24.378 15.8021 23.6493C17.5613 22.9206 19.1598 21.8525 20.5062 20.5061C21.8527 19.1597 22.9207 17.5612 23.6494 15.802C24.3781 14.0427 24.7532 12.1572 24.7532 10.2531C24.7532 8.34888 24.3781 6.46336 23.6494 4.70414C22.9207 2.94492 21.8527 1.34645 20.5062 3.60608e-06L14.6319 5.87429C15.207 6.44932 15.6631 7.13197 15.9743 7.88328C16.2855 8.63459 16.4457 9.43984 16.4457 10.2531C16.4457 11.0663 16.2855 11.8715 15.9743 12.6228C15.6631 13.3741 15.207 14.0568 14.6319 14.6318C14.0569 15.2068 13.3743 15.663 12.623 15.9742C11.8716 16.2854 11.0664 16.4456 10.2532 16.4456C9.43997 16.4456 8.63472 16.2854 7.88341 15.9742C7.1321 15.663 6.44944 15.2068 5.87442 14.6318L0.000132214 20.5061Z" fill="url(#paint1_radial)"/><path d="M 103.48158264160156 40 L 102.24158477783203 35.91999816894531 L 96.0015869140625 35.91999816894531 L 94.7515869140625 40 L 90.84158325195312 40 L 96.89158630371094 22.799999237060547 L 101.33158111572266 22.799999237060547 L 107.40158081054688 40 L 103.48158264160156 40 M 101.38158416748047 32.869998931884766 C 100.2282485961914 29.176666259765625 99.58158111572266 27.09000015258789 99.44158172607422 26.610000610351562 C 99.29491424560547 26.123332977294922 99.19158172607422 25.739999771118164 99.13158416748047 25.459999084472656 C 98.87158203125 26.459999084472656 98.13158416748047 28.93000030517578 96.91158294677734 32.869998931884766 L 101.38158416748047 32.869998931884766 Z" transform="matrix(1, 0, 0, 1, -41.07320022583008, -19.43463706970215)" style="fill: rgb(231, 36, 78); white-space: pre; color: rgb(51, 51, 51);"/><path d="M 49.16730880737305 -9.740119934082031" style="fill: rgb(231, 36, 78); fill-opacity: 1; stroke: rgb(0, 0, 0); stroke-opacity: 1; stroke-width: 0; paint-order: fill;"/><path d="M 20.516244888305664 14.102372169494629 L 20.315889358520508 14.102372169494629" style="fill: rgb(231, 36, 78); fill-opacity: 1; stroke: rgb(0, 0, 0); stroke-opacity: 1; stroke-width: 0; paint-order: fill;"/></g><path d="M 101.86158752441406 36.11000061035156 C 101.86158752441406 37.45000076293945 101.39491271972656 38.47333526611328 100.46158599853516 39.18000030517578 C 99.5215835571289 39.880001068115234 98.12491607666016 40.22999954223633 96.2715835571289 40.22999954223633 C 95.31825256347656 40.22999954223633 94.50491333007812 40.16666793823242 93.83158111572266 40.040000915527344 C 93.15824890136719 39.913333892822266 92.52825164794922 39.723331451416016 91.94158172607422 39.470001220703125 L 91.94158172607422 36.52000045776367 C 92.6082534790039 36.83333206176758 93.3582534790039 37.09333419799805 94.19158172607422 37.29999923706055 C 95.01824951171875 37.51333236694336 95.74825286865234 37.619998931884766 96.38158416748047 37.619998931884766 C 97.68157958984375 37.619998931884766 98.33158111572266 37.246665954589844 98.33158111572266 36.5 C 98.33158111572266 36.21333312988281 98.24491882324219 35.983333587646484 98.07158660888672 35.810001373291016 C 97.89824676513672 35.63666534423828 97.6015853881836 35.436668395996094 97.18157958984375 35.209999084472656 C 96.76158142089844 34.98999786376953 96.19824981689453 34.72999954223633 95.49158477783203 34.43000030517578 C 94.48491668701172 34.01000213623047 93.74491882324219 33.619998931884766 93.2715835571289 33.26000213623047 C 92.79824829101562 32.900001525878906 92.45491790771484 32.48999786376953 92.24158477783203 32.029998779296875 C 92.02825164794922 31.56333351135254 91.92158508300781 30.989999771118164 91.92158508300781 30.310001373291016 C 91.92158508300781 29.143333435058594 92.37158203125 28.243331909179688 93.2715835571289 27.610000610351562 C 94.17825317382812 26.970001220703125 95.458251953125 26.649999618530273 97.11157989501953 26.649999618530273 C 98.69158172607422 26.649999618530273 100.2282485961914 26.993331909179688 101.7215805053711 27.68000030517578 L 100.64158630371094 30.260000228881836 C 99.98158264160156 29.979999542236328 99.36824798583984 29.75 98.80158233642578 29.56999969482422 C 98.2282485961914 29.389999389648438 97.64491271972656 29.299999237060547 97.05158233642578 29.299999237060547 C 95.99825286865234 29.299999237060547 95.4715805053711 29.586666107177734 95.4715805053711 30.15999984741211 C 95.4715805053711 30.479999542236328 95.64158630371094 30.756668090820312 95.98158264160156 30.989999771118164 C 96.32158660888672 31.22333335876465 97.0649185180664 31.56999969482422 98.21158599853516 32.029998779296875 C 99.23825073242188 32.44333267211914 99.98825073242188 32.83000183105469 100.46158599853516 33.189998626708984 C 100.94158172607422 33.54999923706055 101.29491424560547 33.96333312988281 101.5215835571289 34.43000030517578 C 101.74825286865234 34.9033317565918 101.86158752441406 35.46333312988281 101.86158752441406 36.11000061035156 Z" transform="matrix(1.227656602859497, 0, 0, 1.227656602859497, -26.111724853515625, -12.551694869995117)" style="fill: rgb(231, 36, 78); white-space: pre; color: rgb(231, 36, 78);"/><path d="M 96.15158081054688 32.869998931884766 L 97.71158599853516 30.880001068115234 L 101.38158416748047 26.899999618530273 L 105.41158294677734 26.899999618530273 L 100.20158386230469 32.58000183105469 L 105.7215805053711 40 L 101.6015853881836 40 L 97.82158660888672 34.689998626708984 L 96.29158020019531 35.91999816894531 L 96.29158020019531 40 L 92.7215805053711 40 L 92.7215805053711 21.770000457763672 L 96.29158020019531 21.770000457763672 L 96.29158020019531 29.899999618530273 L 96.1015853881836 32.869998931884766 L 96.15158081054688 32.869998931884766 Z" transform="matrix(1.2276555299758911, 0, 0, 1.2276555299758911, -9.744430541992188, -12.305753707885742)" style="fill: rgb(231, 36, 78); white-space: pre; color: rgb(231, 36, 78);"/><path d="M 100.2515869140625 40 L 96.13158416748047 26.560001373291016 L 96.0215835571289 26.560001373291016 C 96.16825103759766 29.293333053588867 96.24158477783203 31.116666793823242 96.24158477783203 32.029998779296875 L 96.24158477783203 40 L 93.0015869140625 40 L 93.0015869140625 22.8700008392334 L 97.94158172607422 22.8700008392334 L 102.0015869140625 35.970001220703125 L 102.07157897949219 35.970001220703125 L 106.37158203125 22.8700008392334 L 111.31158447265625 22.8700008392334 L 111.31158447265625 40 L 107.93157958984375 40 L 107.93157958984375 31.889999389648438 C 107.93157958984375 31.510000228881836 107.93492126464844 31.06999969482422 107.94158172607422 30.56999969482422 C 107.95491790771484 30.06999969482422 108.00824737548828 28.739999771118164 108.1015853881836 26.579999923706055 L 108.0015869140625 26.579999923706055 L 103.58158111572266 40 L 100.2515869140625 40 Z" transform="matrix(1.2276564836502075, 0, 0, 1.2276564836502075, 7.628490447998047, -12.551692008972168)" style="fill: rgb(253, 205, 46); white-space: pre; color: rgb(231, 36, 78);"/><path d="M 98.14158630371094 29.200000762939453 C 97.38158416748047 29.200000762939453 96.78825378417969 29.439998626708984 96.36157989501953 29.920000076293945 C 95.9349136352539 30.399999618530273 95.68824768066406 31.079999923706055 95.62158203125 31.959999084472656 L 100.64158630371094 31.959999084472656 C 100.62158203125 31.079999923706055 100.39158630371094 30.399999618530273 99.95158386230469 29.920000076293945 C 99.50491333007812 29.439998626708984 98.90158081054688 29.200000762939453 98.14158630371094 29.200000762939453 M 98.64158630371094 40.22999954223633 C 96.53491973876953 40.22999954223633 94.88825225830078 39.650001525878906 93.70158386230469 38.4900016784668 C 92.5149154663086 37.323333740234375 91.92158508300781 35.67333221435547 91.92158508300781 33.540000915527344 C 91.92158508300781 31.34666633605957 92.46824645996094 29.649999618530273 93.56158447265625 28.450000762939453 C 94.66158294677734 27.25 96.18157958984375 26.649999618530273 98.12158203125 26.649999618530273 C 99.96824645996094 26.649999618530273 101.40824890136719 27.176666259765625 102.44158172607422 28.229999542236328 C 103.47491455078125 29.290000915527344 103.99158477783203 30.75 103.99158477783203 32.61000061035156 L 103.99158477783203 34.34000015258789 L 95.54158020019531 34.34000015258789 C 95.58158111572266 35.35333251953125 95.88158416748047 36.14666748046875 96.44158172607422 36.720001220703125 C 97.00824737548828 37.28666687011719 97.79824829101562 37.56999969482422 98.81158447265625 37.56999969482422 C 99.59825134277344 37.56999969482422 100.34491729736328 37.4900016784668 101.05158233642578 37.33000183105469 C 101.7515869140625 37.163333892822266 102.48491668701172 36.900001525878906 103.2515869140625 36.540000915527344 L 103.2515869140625 39.310001373291016 C 102.62491607666016 39.62333297729492 101.958251953125 39.856666564941406 101.2515869140625 40.0099983215332 C 100.53825378417969 40.15666580200195 99.66825103759766 40.22999954223633 98.64158630371094 40.22999954223633 Z" transform="matrix(1.227655291557312, 0, 0, 1.227655291557312, 32.963340759277344, -12.797691345214844)" style="fill: rgb(253, 205, 46); white-space: pre; color: rgb(231, 36, 78);"/><path d="M 98.14158630371094 29.200000762939453 C 97.38158416748047 29.200000762939453 96.78825378417969 29.439998626708984 96.36157989501953 29.920000076293945 C 95.9349136352539 30.399999618530273 95.68824768066406 31.079999923706055 95.62158203125 31.959999084472656 L 100.64158630371094 31.959999084472656 C 100.62158203125 31.079999923706055 100.39158630371094 30.399999618530273 99.95158386230469 29.920000076293945 C 99.50491333007812 29.439998626708984 98.90158081054688 29.200000762939453 98.14158630371094 29.200000762939453 M 98.64158630371094 40.22999954223633 C 96.53491973876953 40.22999954223633 94.88825225830078 39.650001525878906 93.70158386230469 38.4900016784668 C 92.5149154663086 37.323333740234375 91.92158508300781 35.67333221435547 91.92158508300781 33.540000915527344 C 91.92158508300781 31.34666633605957 92.46824645996094 29.649999618530273 93.56158447265625 28.450000762939453 C 94.66158294677734 27.25 96.18157958984375 26.649999618530273 98.12158203125 26.649999618530273 C 99.96824645996094 26.649999618530273 101.40824890136719 27.176666259765625 102.44158172607422 28.229999542236328 C 103.47491455078125 29.290000915527344 103.99158477783203 30.75 103.99158477783203 32.61000061035156 L 103.99158477783203 34.34000015258789 L 95.54158020019531 34.34000015258789 C 95.58158111572266 35.35333251953125 95.88158416748047 36.14666748046875 96.44158172607422 36.720001220703125 C 97.00824737548828 37.28666687011719 97.79824829101562 37.56999969482422 98.81158447265625 37.56999969482422 C 99.59825134277344 37.56999969482422 100.34491729736328 37.4900016784668 101.05158233642578 37.33000183105469 C 101.7515869140625 37.163333892822266 102.48491668701172 36.900001525878906 103.2515869140625 36.540000915527344 L 103.2515869140625 39.310001373291016 C 102.62491607666016 39.62333297729492 101.958251953125 39.856666564941406 101.2515869140625 40.0099983215332 C 100.53825378417969 40.15666580200195 99.66825103759766 40.22999954223633 98.64158630371094 40.22999954223633 Z" transform="matrix(1.2276564836502075, 0, 0, 1.2276564836502075, 50.612857818603516, -12.0597505569458)" style="fill: rgb(253, 205, 46); white-space: pre; color: rgb(231, 36, 78);"/></svg>